<svg width="19" height="20" viewBox="0 0 19 20" fill="none" xmlns="http://www.w3.org/2000/svg">
<path d="M9.25644 0.0618607C9.1931 0.0953983 8.813 0.400963 8.41055 0.740066L7.68018 1.35492L8.59314 1.3661C9.09248 1.36983 9.91229 1.36983 10.4154 1.3661L11.3283 1.35492L10.5979 0.740066C10.1955 0.400963 9.81541 0.0953983 9.75206 0.0581343C9.603 -0.0201201 9.4055 -0.0201201 9.25644 0.0618607Z" fill="#1BB275"/>
<path d="M3.83077 2.56966C3.74507 2.61438 3.65936 2.70009 3.61464 2.78952C3.54011 2.93112 3.54011 3.00192 3.54384 6.31842V9.702L5.50393 11.2224L7.46029 12.739H9.50608H11.5482L13.5045 11.2186L15.4609 9.702V6.31842C15.4646 2.9982 15.4646 2.93112 15.3901 2.78952C15.3416 2.69263 15.2634 2.61438 15.1665 2.56594C15.0212 2.49141 14.9615 2.49141 9.4949 2.49141C4.06554 2.49513 3.96492 2.49513 3.83077 2.56966ZM10.0837 3.83664C11.4289 4.02296 12.5915 4.8614 13.1989 6.08739C13.4598 6.60908 13.5641 7.05998 13.5641 7.64875C13.5641 8.62507 13.158 9.62001 12.5915 10.0374C12.2748 10.2684 12.0102 10.3616 11.6078 10.3802C11.1718 10.4026 10.9296 10.3206 10.6315 10.0411L10.4228 9.84733L10.2141 9.9703C9.78556 10.2274 9.22288 10.2945 8.77571 10.1343C7.90746 9.82869 7.34104 8.94181 7.33732 7.89096C7.33359 6.97054 7.71741 6.23644 8.4217 5.81908C8.84278 5.56942 9.48745 5.49861 9.92717 5.65512C10.0501 5.69611 10.1582 5.73338 10.1731 5.73338C10.1843 5.73338 10.2253 5.67375 10.2588 5.60295C10.434 5.23404 10.9929 5.23031 11.2165 5.59177C11.2873 5.71102 11.291 5.78555 11.291 7.41026C11.291 9.32936 11.2836 9.27346 11.5556 9.27346C11.7494 9.27346 11.8873 9.19893 12.0512 9.00516C12.3605 8.6437 12.5356 7.67483 12.394 7.11215C12.1406 6.12465 11.332 5.31602 10.2998 5.01791C9.91599 4.90612 9.17071 4.89866 8.79434 5.003C7.44538 5.37192 6.5585 6.51965 6.5585 7.89842C6.5585 8.3903 6.64793 8.75922 6.87152 9.21756C7.17336 9.82497 7.63916 10.2833 8.25029 10.5777C8.60429 10.7454 8.89495 10.8274 9.27877 10.8609C9.63278 10.8944 9.81538 10.9802 9.91226 11.1739C10.0054 11.3602 10.0054 11.5093 9.91226 11.6956C9.8191 11.8745 9.61042 11.9937 9.38311 11.9937C8.89495 11.9937 8.16458 11.7962 7.64288 11.5279C6.2902 10.8236 5.44431 9.43742 5.44058 7.92823C5.44058 6.82149 5.81695 5.8638 6.56968 5.0738C7.47892 4.11612 8.79061 3.65405 10.0837 3.83664Z" fill="#1BB275"/>
<path d="M9.14082 6.71722C8.94332 6.78057 8.80917 6.88863 8.66011 7.09731C8.29493 7.61156 8.41417 8.5357 8.89488 8.93443C9.37186 9.32943 9.93827 9.01268 10.1209 8.24877C10.1842 7.97302 10.1768 7.59292 10.0985 7.32835C9.96435 6.86255 9.53954 6.59052 9.14082 6.71722Z" fill="#1BB275"/>
<path d="M1.52785 6.53459C1.04714 6.93704 0.629788 7.29105 0.603703 7.31713C0.558986 7.3544 0.711768 7.48855 1.47195 8.08105C1.97502 8.47232 2.3961 8.78906 2.40728 8.78161C2.41473 8.77043 2.41846 8.09595 2.41473 7.27987L2.40356 5.79676L1.52785 6.53459Z" fill="#1BB275"/>
<path d="M16.5825 7.2985C16.5825 8.11831 16.5937 8.78906 16.6049 8.78906C16.631 8.78906 18.401 7.41775 18.4234 7.37676C18.442 7.35067 16.7763 5.91601 16.6347 5.83403C16.59 5.80794 16.5825 6.04643 16.5825 7.2985Z" fill="#1BB275"/>
<path d="M0 13.2979C0 16.0033 0.00745281 18.2168 0.018632 18.2168C0.055896 18.2168 6.31625 13.3278 6.31625 13.2979C6.31625 13.2681 0.055896 8.37909 0.018632 8.37909C0.00745281 8.37909 0 10.5926 0 13.2979Z" fill="#1BB275"/>
<path d="M15.8372 10.82C14.1044 12.1652 12.6884 13.2832 12.6884 13.2981C12.6884 13.313 14.1044 14.4309 15.8372 15.7761L18.986 18.2244L18.9972 15.7612C19.0009 14.4048 19.0009 12.1913 18.9972 10.8349L18.986 8.37176L15.8372 10.82Z" fill="#1BB275"/>
<path d="M4.11767 16.4543L0.775085 19.0554L5.1387 19.0665C7.53851 19.0703 11.4661 19.0703 13.8659 19.0665L18.2333 19.0554L14.8907 16.4543L11.5481 13.857H9.50605H7.46025L4.11767 16.4543Z" fill="#1BB275"/>
</svg>
