<svg width="17" height="17" viewBox="0 0 17 17" fill="none" xmlns="http://www.w3.org/2000/svg">
<path d="M12.9043 4.93266C13.4618 4.93266 13.9138 4.48068 13.9138 3.92312C13.9138 3.36556 13.4618 2.91357 12.9043 2.91357C12.3467 2.91357 11.8947 3.36556 11.8947 3.92312C11.8947 4.48068 12.3467 4.93266 12.9043 4.93266Z" fill="#1BB275"/>
<path d="M8.41352 4.0918C7.5591 4.0918 6.72387 4.34516 6.01345 4.81985C5.30303 5.29454 4.74932 5.96923 4.42235 6.75861C4.09538 7.54799 4.00983 8.4166 4.17652 9.2546C4.3432 10.0926 4.75465 10.8624 5.35881 11.4665C5.96297 12.0707 6.73273 12.4821 7.57073 12.6488C8.40873 12.8155 9.27734 12.7299 10.0667 12.403C10.8561 12.076 11.5308 11.5223 12.0055 10.8119C12.4802 10.1015 12.7335 9.26623 12.7335 8.41181C12.7335 7.26607 12.2784 6.16726 11.4682 5.3571C10.6581 4.54694 9.55926 4.0918 8.41352 4.0918ZM8.41352 11.2161C7.85888 11.2161 7.3167 11.0516 6.85554 10.7435C6.39437 10.4354 6.03494 9.99738 5.82269 9.48496C5.61044 8.97255 5.55491 8.4087 5.66311 7.86472C5.77131 7.32074 6.0384 6.82106 6.43059 6.42887C6.82277 6.03669 7.32245 5.7696 7.86643 5.6614C8.41041 5.5532 8.97426 5.60873 9.48667 5.82098C9.99909 6.03323 10.4371 6.39266 10.7452 6.85383C11.0533 7.31499 11.2178 7.85717 11.2178 8.41181C11.2178 9.15555 10.9224 9.86883 10.3965 10.3947C9.87054 10.9206 9.15726 11.2161 8.41352 11.2161Z" fill="#1BB275"/>
<path d="M8.41287 1.51572C10.6591 1.51572 10.9255 1.52413 11.8124 1.56479C12.3458 1.57113 12.8741 1.66907 13.3744 1.85434C13.7373 1.99434 14.0669 2.20876 14.3419 2.48382C14.617 2.75887 14.8314 3.08846 14.9714 3.45138C15.1567 3.95162 15.2546 4.47997 15.261 5.01337C15.3016 5.90023 15.31 6.16664 15.31 8.41358C15.31 10.6605 15.3016 10.9255 15.261 11.8124C15.2546 12.3458 15.1567 12.8741 14.9714 13.3744C14.8314 13.7373 14.617 14.0669 14.3419 14.3419C14.0669 14.617 13.7373 14.8314 13.3744 14.9714C12.8741 15.1567 12.3458 15.2546 11.8124 15.261C10.9255 15.3016 10.6591 15.31 8.41287 15.31C6.16664 15.31 5.90023 15.3016 5.01337 15.261C4.47997 15.2546 3.95162 15.1567 3.45138 14.9714C3.08846 14.8314 2.75887 14.617 2.48382 14.3419C2.20876 14.0669 1.99434 13.7373 1.85434 13.3744C1.66907 12.8741 1.57113 12.3458 1.56479 11.8124C1.52413 10.9255 1.51572 10.6591 1.51572 8.41287C1.51572 6.16664 1.52413 5.90023 1.56479 5.01337C1.57113 4.47997 1.66907 3.95162 1.85434 3.45138C1.99434 3.08846 2.20876 2.75887 2.48382 2.48382C2.75887 2.20876 3.08846 1.99434 3.45138 1.85434C3.95162 1.66907 4.47997 1.57113 5.01337 1.56479C5.90023 1.52413 6.16664 1.51572 8.41287 1.51572ZM8.41287 0C6.12808 0 5.84134 0.00981504 4.94397 0.0504773C4.24624 0.0645661 3.55595 0.19684 2.90244 0.441676C2.34349 0.657815 1.83587 0.988357 1.41211 1.41211C0.988357 1.83587 0.657815 2.34349 0.441676 2.90244C0.196762 3.55617 0.064487 4.24671 0.0504773 4.94467C0.00981504 5.84204 0 6.12738 0 8.41287C0 10.6984 0.00981504 10.9844 0.0504773 11.8818C0.0645661 12.5795 0.19684 13.2698 0.441676 13.9233C0.657815 14.4823 0.988357 14.9899 1.41211 15.4136C1.83587 15.8374 2.34349 16.1679 2.90244 16.3841C3.55617 16.629 4.24671 16.7613 4.94467 16.7753C5.84204 16.8159 6.12808 16.8257 8.41287 16.8257C10.6977 16.8257 10.9844 16.8159 11.8818 16.7753C12.5797 16.7613 13.2703 16.629 13.924 16.3841C14.483 16.1679 14.9906 15.8374 15.4143 15.4136C15.8381 14.9899 16.1686 14.4823 16.3848 13.9233C16.6294 13.2695 16.7615 12.579 16.7753 11.8811C16.8159 10.9837 16.8257 10.6984 16.8257 8.41287C16.8257 6.12738 16.8159 5.84134 16.7753 4.94397C16.7612 4.24624 16.6289 3.55595 16.3841 2.90244C16.1679 2.34349 15.8374 1.83587 15.4136 1.41211C14.9899 0.988357 14.4823 0.657815 13.9233 0.441676C13.2695 0.197001 12.579 0.0649636 11.8811 0.0511783C10.9837 0.00911392 10.6984 0 8.41287 0Z" fill="#1BB275"/>
</svg>
