<svg width="105" height="25" viewBox="0 0 105 25" fill="none" xmlns="http://www.w3.org/2000/svg">
<path d="M9.71023 24H0.200284V0.862215H3.69034V20.5284H9.71023V24ZM17.6298 0.566761C19.1686 0.566761 20.4735 1.10843 21.5446 2.19176C22.6279 3.27509 23.1696 4.58002 23.1696 6.10653V18.7372C23.1696 20.276 22.6279 21.5871 21.5446 22.6705C20.4612 23.7415 19.1563 24.277 17.6298 24.277C16.091 24.277 14.786 23.7353 13.715 22.652C12.644 21.5687 12.1085 20.2637 12.1085 18.7372V6.10653C12.1085 4.56771 12.6502 3.26278 13.7335 2.19176C14.8168 1.10843 16.1156 0.566761 17.6298 0.566761ZM19.5318 6.03267C19.5318 5.47869 19.3348 5.01089 18.9409 4.62926C18.5592 4.23532 18.0914 4.03835 17.5375 4.03835C16.9835 4.03835 16.5095 4.23532 16.1156 4.62926C15.7217 5.01089 15.5247 5.47869 15.5247 6.03267V18.7003C15.5247 19.2543 15.7217 19.7282 16.1156 20.1222C16.5095 20.5038 16.9835 20.6946 17.5375 20.6946C18.0914 20.6946 18.5592 20.5038 18.9409 20.1222C19.3348 19.7282 19.5318 19.2543 19.5318 18.7003V6.03267ZM31.7147 24.2955C30.1758 24.2955 28.8648 23.7538 27.7814 22.6705C26.7104 21.5871 26.1749 20.2884 26.1749 18.7741V6.14346C26.1749 4.60464 26.7166 3.29972 27.7999 2.22869C28.8832 1.14536 30.1882 0.603692 31.7147 0.603692C33.2535 0.603692 34.5584 1.14536 35.6294 2.22869C36.7005 3.31203 37.236 4.61695 37.236 6.14346V8.78409H33.6167V6.0696C33.6167 5.51562 33.4197 5.04167 33.0257 4.64773C32.6318 4.25379 32.1578 4.05682 31.6039 4.05682C31.0499 4.05682 30.5759 4.25379 30.182 4.64773C29.8004 5.04167 29.6096 5.51562 29.6096 6.0696V18.7372C29.6096 19.2912 29.8004 19.7652 30.182 20.1591C30.5759 20.5407 31.0499 20.7315 31.6039 20.7315C32.1578 20.7315 32.6318 20.5407 33.0257 20.1591C33.4197 19.7652 33.6167 19.2912 33.6167 18.7372V14.1761H31.6777V10.6861H37.236V18.7741C37.236 20.313 36.6943 21.6179 35.611 22.6889C34.5276 23.7599 33.2289 24.2955 31.7147 24.2955ZM45.7372 0.566761C47.276 0.566761 48.581 1.10843 49.652 2.19176C50.7353 3.27509 51.277 4.58002 51.277 6.10653V18.7372C51.277 20.276 50.7353 21.5871 49.652 22.6705C48.5687 23.7415 47.2637 24.277 45.7372 24.277C44.1984 24.277 42.8935 23.7353 41.8224 22.652C40.7514 21.5687 40.2159 20.2637 40.2159 18.7372V6.10653C40.2159 4.56771 40.7576 3.26278 41.8409 2.19176C42.9242 1.10843 44.223 0.566761 45.7372 0.566761ZM47.6392 6.03267C47.6392 5.47869 47.4422 5.01089 47.0483 4.62926C46.6667 4.23532 46.1989 4.03835 45.6449 4.03835C45.0909 4.03835 44.617 4.23532 44.223 4.62926C43.8291 5.01089 43.6321 5.47869 43.6321 6.03267V18.7003C43.6321 19.2543 43.8291 19.7282 44.223 20.1222C44.617 20.5038 45.0909 20.6946 45.6449 20.6946C46.1989 20.6946 46.6667 20.5038 47.0483 20.1222C47.4422 19.7282 47.6392 19.2543 47.6392 18.7003V6.03267Z" fill="#102C5B"/>
<path d="M57.1815 14.1946V24H53.6729V0.862215H57.1815V10.6861H61.3548V0.862215H64.8633V24H61.3548V14.1946H57.1815ZM67.9679 24V0.84375H77.9025V4.33381H71.4579V10.6676H76.1667V14.1761H71.4579V20.5099H77.9025V24H67.9679ZM85.8105 0.862215C87.7556 0.862215 89.1837 1.39773 90.0946 2.46875C90.8948 3.40436 91.2949 4.70928 91.2949 6.38352V9.74432C91.2949 11.3816 90.6732 12.7666 89.4299 13.8991L92.0151 24H88.248L86.1245 15.2656C86.026 15.2779 85.9213 15.2841 85.8105 15.2841H83.7978V24H80.3077V0.862215H85.8105ZM87.8972 6.43892C87.8972 5.09706 87.2324 4.42614 85.9029 4.42614H83.7978V11.831H85.9029C86.4569 11.831 86.9247 11.634 87.3063 11.2401C87.7002 10.8461 87.8972 10.3722 87.8972 9.81818V6.43892ZM95.0089 24V0.84375H104.944V4.33381H98.4989V10.6676H103.208V14.1761H98.4989V20.5099H104.944V24H95.0089Z" fill="#1BB275"/>
</svg>
