<svg width="14" height="15" viewBox="0 0 14 15" fill="none" xmlns="http://www.w3.org/2000/svg">
<path d="M2.62094 0.0472946C2.41637 0.1247 2.3362 0.179989 1.89112 0.555956C1.36587 0.998269 1.19724 1.15861 1.00373 1.39359C0.403838 2.12617 0.0748665 2.9721 0.0112838 3.94519C-0.0440054 4.80217 0.102511 5.63151 0.481242 6.63224C0.613937 6.98057 1.07007 7.86519 1.3327 8.28539C2.37766 9.95789 4.05016 11.7686 5.48215 12.7859C7.5168 14.2262 9.52933 14.5331 11.2405 13.6623C11.6137 13.4715 11.8819 13.2808 12.3159 12.8938C12.9987 12.2856 13.1148 12.1391 13.1646 11.8322C13.2448 11.3291 12.9379 10.9006 11.8404 9.96619C11.0608 9.29995 10.5522 9.03733 10.0656 9.03733C9.59567 9.04009 9.3137 9.20872 8.52859 9.95789C8.31296 10.1652 8.09457 10.3504 8.0227 10.3836C7.40622 10.6877 6.5907 10.3173 5.53744 9.26125C4.75787 8.47891 4.06675 7.58598 3.72949 6.92804C3.41157 6.30327 3.34523 5.82779 3.52768 5.438C3.60785 5.2666 3.73225 5.13391 4.01699 4.92381C4.2962 4.71647 4.81868 4.25481 4.94032 4.10829C4.99285 4.04194 5.07854 3.90372 5.12554 3.80144C5.19742 3.64386 5.21677 3.56922 5.22782 3.35912C5.24441 3.02462 5.1753 2.74817 4.95967 2.3031C4.77445 1.91884 4.27132 1.11161 3.99211 0.752233C3.50833 0.127463 3.04666 -0.11028 2.62094 0.0472946Z" fill="#1BB275"/>
</svg>
