<svg width="13" height="18" viewBox="0 0 13 18" fill="none" xmlns="http://www.w3.org/2000/svg">
<path d="M6.90042 0.389648C3.42964 0.389648 0 2.67808 0 6.38186C0 8.73721 1.33949 10.0755 2.15131 10.0755C2.48632 10.0755 2.67899 9.15207 2.67899 8.89138C2.67899 8.58036 1.87745 7.91765 1.87745 6.62275C1.87745 3.93284 3.94758 2.02554 6.62657 2.02554C8.92995 2.02554 10.6348 3.32045 10.6348 5.69935C10.6348 7.47603 9.91441 10.8083 7.58018 10.8083C6.73806 10.8083 6.01716 10.2061 6.01716 9.34317C6.01716 8.07825 6.91016 6.854 6.91016 5.54893C6.91016 3.33437 3.7338 3.73584 3.7338 6.41237C3.7338 6.97444 3.8047 7.59647 4.05853 8.10876C3.59146 10.0963 2.63785 13.0571 2.63785 15.1047C2.63785 15.7369 2.72932 16.3594 2.78993 16.9916C2.90467 17.119 2.8473 17.1056 3.0232 17.0419C4.728 14.7332 4.66739 14.2819 5.43861 11.2606C5.8548 12.0438 6.93018 12.4651 7.78259 12.4651C11.3746 12.4651 12.9885 9.00218 12.9885 5.88082C12.9885 2.55871 10.086 0.390719 6.89988 0.390719L6.90042 0.389648Z" fill="#1BB275"/>
</svg>
