<svg width="19" height="16" viewBox="0 0 19 16" fill="none" xmlns="http://www.w3.org/2000/svg">
<path d="M18.2393 1.95811C17.7314 2.71906 17.1083 3.36773 16.37 3.90413C16.3773 4.04799 16.3809 4.21059 16.3809 4.39192C16.3809 5.39946 16.2351 6.40821 15.9434 7.41819C15.6517 8.42817 15.2062 9.39491 14.6067 10.3184C14.0073 11.2419 13.2933 12.06 12.4647 12.7728C11.6361 13.4855 10.6401 14.0538 9.47667 14.4777C8.31323 14.9016 7.06634 15.1135 5.736 15.1135C3.65977 15.1135 1.74777 14.549 0 13.4199C0.310209 13.4546 0.607725 13.472 0.892549 13.472C2.62707 13.472 4.17627 12.9339 5.54016 11.8577C4.73143 11.8428 4.00715 11.592 3.36732 11.1054C2.72749 10.6189 2.28718 9.99713 2.04638 9.24022C2.2844 9.28589 2.51931 9.30872 2.75112 9.30872C3.0848 9.30872 3.41313 9.26489 3.73612 9.17722C2.87306 9.00312 2.15707 8.57015 1.58816 7.87831C1.01928 7.18649 0.734832 6.38799 0.734832 5.48281V5.43616C1.26459 5.7316 1.82965 5.88875 2.43003 5.90761C1.91875 5.5643 1.51339 5.11662 1.21394 4.56455C0.914467 4.01249 0.764731 3.41506 0.764731 2.77226C0.764731 2.09432 0.933392 1.46304 1.27071 0.878399C2.20928 2.03849 3.34655 2.96567 4.68253 3.65994C6.01852 4.35423 7.45179 4.73981 8.98233 4.81669C8.91705 4.54267 8.88435 4.25672 8.88423 3.95884C8.88423 2.91874 9.24966 2.03065 9.98053 1.29456C10.7114 0.558473 11.5932 0.19043 12.6258 0.19043C13.7069 0.19043 14.6176 0.586941 15.3578 1.37996C16.2035 1.21124 16.9953 0.906071 17.7333 0.464447C17.449 1.3657 16.9011 2.06096 16.0897 2.55022C16.8354 2.46096 17.552 2.26359 18.2393 1.95811H18.2393Z" fill="#1BB275"/>
</svg>
